<mxfile host="app.diagrams.net" modified="2020-09-09T15:32:36.404Z" agent="5.0 (Windows NT 10.0; Win64; x64) AppleWebKit/537.36 (KHTML, like Gecko) Chrome/84.0.4147.135 Safari/537.36 OPR/70.0.3728.154" etag="niGsMYcqLP0JNgonmwgI" version="13.6.9" type="github">
  <diagram id="O7x52xXZMumNZvnUF8GZ" name="Page-1">
    <mxGraphModel dx="1313" dy="804" grid="0" gridSize="10" guides="1" tooltips="1" connect="1" arrows="1" fold="1" page="0" pageScale="1" pageWidth="1200" pageHeight="1600" background="none" math="0" shadow="1">
      <root>
        <mxCell id="0" />
        <mxCell id="1" parent="0" />
        <mxCell id="nsGSoqTJ4yFIo4ANm3ig-1" value="Environments" style="text;html=1;strokeColor=none;fillColor=none;align=center;verticalAlign=middle;whiteSpace=wrap;rounded=0;" parent="1" vertex="1">
          <mxGeometry x="670" y="30" width="140" height="20" as="geometry" />
        </mxCell>
        <mxCell id="nsGSoqTJ4yFIo4ANm3ig-2" value="Develop" style="triangle;whiteSpace=wrap;html=1;" parent="1" vertex="1">
          <mxGeometry x="750" y="70" width="190" height="80" as="geometry" />
        </mxCell>
        <mxCell id="nsGSoqTJ4yFIo4ANm3ig-3" value="UAT" style="triangle;whiteSpace=wrap;html=1;" parent="1" vertex="1">
          <mxGeometry x="750" y="190" width="200" height="80" as="geometry" />
        </mxCell>
        <mxCell id="nsGSoqTJ4yFIo4ANm3ig-4" value="PRD" style="triangle;whiteSpace=wrap;html=1;" parent="1" vertex="1">
          <mxGeometry x="750" y="310" width="200" height="80" as="geometry" />
        </mxCell>
        <mxCell id="nsGSoqTJ4yFIo4ANm3ig-5" value="&lt;font style=&quot;font-size: 16px&quot;&gt;&lt;b&gt;&lt;i&gt;Configuration&amp;nbsp;&lt;/i&gt;&lt;/b&gt;&lt;/font&gt;" style="text;html=1;strokeColor=none;fillColor=none;align=center;verticalAlign=middle;whiteSpace=wrap;rounded=0;" parent="1" vertex="1">
          <mxGeometry x="40" y="40" width="140" height="20" as="geometry" />
        </mxCell>
        <mxCell id="nsGSoqTJ4yFIo4ANm3ig-12" value="" style="edgeStyle=orthogonalEdgeStyle;rounded=0;orthogonalLoop=1;jettySize=auto;html=1;entryX=0.5;entryY=0;entryDx=0;entryDy=0;" parent="1" source="nsGSoqTJ4yFIo4ANm3ig-6" target="nsGSoqTJ4yFIo4ANm3ig-18" edge="1">
          <mxGeometry relative="1" as="geometry">
            <mxPoint x="525" y="200" as="targetPoint" />
          </mxGeometry>
        </mxCell>
        <mxCell id="nsGSoqTJ4yFIo4ANm3ig-6" value="DEV" style="shape=cube;whiteSpace=wrap;html=1;boundedLbl=1;backgroundOutline=1;darkOpacity=0.05;darkOpacity2=0.1;" parent="1" vertex="1">
          <mxGeometry x="120" y="80" width="120" height="80" as="geometry" />
        </mxCell>
        <mxCell id="nsGSoqTJ4yFIo4ANm3ig-13" style="edgeStyle=orthogonalEdgeStyle;rounded=0;orthogonalLoop=1;jettySize=auto;html=1;entryX=0;entryY=0.5;entryDx=0;entryDy=0;" parent="1" source="nsGSoqTJ4yFIo4ANm3ig-7" target="nsGSoqTJ4yFIo4ANm3ig-18" edge="1">
          <mxGeometry relative="1" as="geometry">
            <mxPoint x="417.5" y="244" as="targetPoint" />
          </mxGeometry>
        </mxCell>
        <mxCell id="nsGSoqTJ4yFIo4ANm3ig-7" value="UAT" style="shape=cube;whiteSpace=wrap;html=1;boundedLbl=1;backgroundOutline=1;darkOpacity=0.05;darkOpacity2=0.1;" parent="1" vertex="1">
          <mxGeometry x="120" y="200" width="120" height="80" as="geometry" />
        </mxCell>
        <mxCell id="nsGSoqTJ4yFIo4ANm3ig-14" style="edgeStyle=orthogonalEdgeStyle;rounded=0;orthogonalLoop=1;jettySize=auto;html=1;entryX=0.5;entryY=1;entryDx=0;entryDy=0;" parent="1" source="nsGSoqTJ4yFIo4ANm3ig-8" target="nsGSoqTJ4yFIo4ANm3ig-18" edge="1">
          <mxGeometry relative="1" as="geometry">
            <mxPoint x="537.5" y="304.5000000000001" as="targetPoint" />
          </mxGeometry>
        </mxCell>
        <mxCell id="nsGSoqTJ4yFIo4ANm3ig-8" value="PRD&lt;span style=&quot;color: rgba(0 , 0 , 0 , 0) ; font-family: monospace ; font-size: 0px&quot;&gt;%3CmxGraphModel%3E%3Croot%3E%3CmxCell%20id%3D%220%22%2F%3E%3CmxCell%20id%3D%221%22%20parent%3D%220%22%2F%3E%3CmxCell%20id%3D%222%22%20value%3D%22UAT%22%20style%3D%22shape%3Dcube%3BwhiteSpace%3Dwrap%3Bhtml%3D1%3BboundedLbl%3D1%3BbackgroundOutline%3D1%3BdarkOpacity%3D0.05%3BdarkOpacity2%3D0.1%3B%22%20vertex%3D%221%22%20parent%3D%221%22%3E%3CmxGeometry%20x%3D%22120%22%20y%3D%22200%22%20width%3D%22120%22%20height%3D%2280%22%20as%3D%22geometry%22%2F%3E%3C%2FmxCell%3E%3C%2Froot%3E%3C%2FmxGraphModel%3E&lt;/span&gt;" style="shape=cube;whiteSpace=wrap;html=1;boundedLbl=1;backgroundOutline=1;darkOpacity=0.05;darkOpacity2=0.1;" parent="1" vertex="1">
          <mxGeometry x="120" y="320" width="120" height="80" as="geometry" />
        </mxCell>
        <mxCell id="nsGSoqTJ4yFIo4ANm3ig-17" style="edgeStyle=orthogonalEdgeStyle;rounded=0;orthogonalLoop=1;jettySize=auto;html=1;entryX=0;entryY=0.5;entryDx=0;entryDy=0;" parent="1" source="nsGSoqTJ4yFIo4ANm3ig-9" target="nsGSoqTJ4yFIo4ANm3ig-19" edge="1">
          <mxGeometry relative="1" as="geometry">
            <mxPoint x="372" y="475" as="targetPoint" />
          </mxGeometry>
        </mxCell>
        <mxCell id="nsGSoqTJ4yFIo4ANm3ig-9" value="COMMON" style="shape=cube;whiteSpace=wrap;html=1;boundedLbl=1;backgroundOutline=1;darkOpacity=0.05;darkOpacity2=0.1;" parent="1" vertex="1">
          <mxGeometry x="120" y="440" width="120" height="80" as="geometry" />
        </mxCell>
        <mxCell id="nsGSoqTJ4yFIo4ANm3ig-18" value="&lt;span&gt;Changes made inside will be&amp;nbsp;&lt;/span&gt;&lt;br&gt;&lt;span&gt;propagated to the specific&amp;nbsp;&lt;/span&gt;&lt;br&gt;&lt;span&gt;environment when deployed.&lt;/span&gt;" style="shape=step;perimeter=stepPerimeter;whiteSpace=wrap;html=1;fixedSize=1;" parent="1" vertex="1">
          <mxGeometry x="340" y="200" width="230" height="80" as="geometry" />
        </mxCell>
        <mxCell id="nsGSoqTJ4yFIo4ANm3ig-19" value="&lt;span&gt;The changes will always be deployed, regardless of the target&amp;nbsp;&lt;/span&gt;&lt;span&gt;deployment environment. &lt;br&gt;This applies to all subfolders&amp;nbsp;&lt;/span&gt;&lt;br&gt;&lt;span&gt;within the&amp;nbsp;&lt;/span&gt;&lt;b&gt;configs/&lt;/b&gt;&lt;span&gt;&amp;nbsp;directory, for all services.&lt;/span&gt;" style="shape=step;perimeter=stepPerimeter;whiteSpace=wrap;html=1;fixedSize=1;" parent="1" vertex="1">
          <mxGeometry x="290" y="440" width="330" height="80" as="geometry" />
        </mxCell>
        <mxCell id="VfZf6pHmzGxJr0AxBlC9-2" value="&lt;div&gt;&lt;span style=&quot;font-size: 16px&quot;&gt;&lt;b&gt;&lt;i&gt;Continuous Integration&lt;/i&gt;&lt;/b&gt;&lt;/span&gt;&lt;/div&gt;&lt;div&gt;&lt;br&gt;&lt;/div&gt;" style="text;html=1;strokeColor=none;fillColor=none;align=center;verticalAlign=middle;whiteSpace=wrap;rounded=0;" vertex="1" parent="1">
          <mxGeometry x="70" y="590" width="240" height="20" as="geometry" />
        </mxCell>
        <mxCell id="VfZf6pHmzGxJr0AxBlC9-8" style="edgeStyle=orthogonalEdgeStyle;rounded=0;orthogonalLoop=1;jettySize=auto;html=1;exitX=0.5;exitY=1;exitDx=0;exitDy=0;" edge="1" parent="1" source="VfZf6pHmzGxJr0AxBlC9-4" target="VfZf6pHmzGxJr0AxBlC9-4">
          <mxGeometry relative="1" as="geometry" />
        </mxCell>
        <mxCell id="VfZf6pHmzGxJr0AxBlC9-11" value="" style="shape=cube;whiteSpace=wrap;html=1;boundedLbl=1;backgroundOutline=1;darkOpacity=0.05;darkOpacity2=0.1;" vertex="1" parent="1">
          <mxGeometry x="52" y="703" width="787" height="422" as="geometry" />
        </mxCell>
        <mxCell id="VfZf6pHmzGxJr0AxBlC9-12" value="develop" style="shape=step;perimeter=stepPerimeter;whiteSpace=wrap;html=1;fixedSize=1;" vertex="1" parent="1">
          <mxGeometry x="96" y="814" width="727" height="26" as="geometry" />
        </mxCell>
        <mxCell id="VfZf6pHmzGxJr0AxBlC9-13" value="master" style="rounded=0;whiteSpace=wrap;html=1;" vertex="1" parent="1">
          <mxGeometry x="86" y="748" width="734" height="29" as="geometry" />
        </mxCell>
        <mxCell id="VfZf6pHmzGxJr0AxBlC9-21" style="edgeStyle=orthogonalEdgeStyle;rounded=0;orthogonalLoop=1;jettySize=auto;html=1;entryX=0.433;entryY=1.038;entryDx=0;entryDy=0;entryPerimeter=0;" edge="1" parent="1" source="VfZf6pHmzGxJr0AxBlC9-14" target="VfZf6pHmzGxJr0AxBlC9-12">
          <mxGeometry relative="1" as="geometry">
            <Array as="points">
              <mxPoint x="493" y="890" />
            </Array>
          </mxGeometry>
        </mxCell>
        <mxCell id="VfZf6pHmzGxJr0AxBlC9-14" value="feature&lt;br&gt;MCDMIGDXP_74_Email_Notifications" style="shape=process;whiteSpace=wrap;html=1;backgroundOutline=1;" vertex="1" parent="1">
          <mxGeometry x="107" y="876" width="318" height="28" as="geometry" />
        </mxCell>
        <mxCell id="VfZf6pHmzGxJr0AxBlC9-20" style="edgeStyle=orthogonalEdgeStyle;rounded=0;orthogonalLoop=1;jettySize=auto;html=1;" edge="1" parent="1" source="VfZf6pHmzGxJr0AxBlC9-15" target="VfZf6pHmzGxJr0AxBlC9-12">
          <mxGeometry relative="1" as="geometry">
            <Array as="points">
              <mxPoint x="554" y="965" />
            </Array>
          </mxGeometry>
        </mxCell>
        <mxCell id="VfZf6pHmzGxJr0AxBlC9-15" value="feature&lt;br&gt;MCDMIGDXP-26/&lt;br&gt;MCDMIGDXP-195_Categories-Restaurant" style="shape=process;whiteSpace=wrap;html=1;backgroundOutline=1;" vertex="1" parent="1">
          <mxGeometry x="107" y="935" width="289" height="60" as="geometry" />
        </mxCell>
        <mxCell id="VfZf6pHmzGxJr0AxBlC9-17" value="" style="endArrow=none;html=1;exitX=0;exitY=1;exitDx=0;exitDy=0;" edge="1" parent="1" source="VfZf6pHmzGxJr0AxBlC9-19">
          <mxGeometry width="50" height="50" relative="1" as="geometry">
            <mxPoint x="107" y="1104" as="sourcePoint" />
            <mxPoint x="107" y="840" as="targetPoint" />
          </mxGeometry>
        </mxCell>
        <mxCell id="VfZf6pHmzGxJr0AxBlC9-22" style="edgeStyle=orthogonalEdgeStyle;rounded=0;orthogonalLoop=1;jettySize=auto;html=1;entryX=0.56;entryY=1;entryDx=0;entryDy=0;entryPerimeter=0;" edge="1" parent="1" source="VfZf6pHmzGxJr0AxBlC9-19" target="VfZf6pHmzGxJr0AxBlC9-12">
          <mxGeometry relative="1" as="geometry">
            <Array as="points">
              <mxPoint x="609" y="1038" />
            </Array>
          </mxGeometry>
        </mxCell>
        <mxCell id="VfZf6pHmzGxJr0AxBlC9-19" value="feature&lt;br&gt;MCDMIGDXP-XX_mcdonald_rulz" style="shape=process;whiteSpace=wrap;html=1;backgroundOutline=1;" vertex="1" parent="1">
          <mxGeometry x="107" y="1020" width="409" height="36" as="geometry" />
        </mxCell>
        <mxCell id="VfZf6pHmzGxJr0AxBlC9-24" value="" style="endArrow=classic;html=1;" edge="1" parent="1">
          <mxGeometry width="50" height="50" relative="1" as="geometry">
            <mxPoint x="679" y="814" as="sourcePoint" />
            <mxPoint x="679" y="779" as="targetPoint" />
          </mxGeometry>
        </mxCell>
        <mxCell id="VfZf6pHmzGxJr0AxBlC9-25" value="" style="endArrow=classic;html=1;" edge="1" parent="1">
          <mxGeometry width="50" height="50" relative="1" as="geometry">
            <mxPoint x="732" y="814" as="sourcePoint" />
            <mxPoint x="732" y="778" as="targetPoint" />
          </mxGeometry>
        </mxCell>
        <mxCell id="VfZf6pHmzGxJr0AxBlC9-28" value="Releases" style="text;html=1;strokeColor=none;fillColor=none;align=center;verticalAlign=middle;whiteSpace=wrap;rounded=0;" vertex="1" parent="1">
          <mxGeometry x="740" y="786" width="92" height="20" as="geometry" />
        </mxCell>
        <mxCell id="VfZf6pHmzGxJr0AxBlC9-33" value="Merge Request" style="text;html=1;strokeColor=none;fillColor=none;align=center;verticalAlign=middle;whiteSpace=wrap;rounded=0;" vertex="1" parent="1">
          <mxGeometry x="610" y="866" width="122" height="20" as="geometry" />
        </mxCell>
        <mxCell id="VfZf6pHmzGxJr0AxBlC9-38" value="" style="shape=cube;whiteSpace=wrap;html=1;boundedLbl=1;backgroundOutline=1;darkOpacity=0.05;darkOpacity2=0.1;" vertex="1" parent="1">
          <mxGeometry x="921" y="703" width="750" height="425" as="geometry" />
        </mxCell>
        <mxCell id="VfZf6pHmzGxJr0AxBlC9-10" value="" style="ellipse;shape=cloud;whiteSpace=wrap;html=1;" vertex="1" parent="1">
          <mxGeometry x="645" y="1053.5" width="183" height="63" as="geometry" />
        </mxCell>
        <mxCell id="VfZf6pHmzGxJr0AxBlC9-3" value="" style="shape=image;html=1;verticalAlign=top;verticalLabelPosition=bottom;labelBackgroundColor=#ffffff;imageAspect=0;aspect=fixed;image=https://cdn4.iconfinder.com/data/icons/logos-and-brands/512/144_Gitlab_logo_logos-128.png" vertex="1" parent="1">
          <mxGeometry x="567" y="1050" width="70" height="70" as="geometry" />
        </mxCell>
        <mxCell id="VfZf6pHmzGxJr0AxBlC9-4" value="&lt;b&gt;steps.everis.com/git&lt;/b&gt;" style="text;html=1;strokeColor=none;fillColor=none;align=center;verticalAlign=middle;whiteSpace=wrap;rounded=0;" vertex="1" parent="1">
          <mxGeometry x="667.5" y="1075" width="138" height="20" as="geometry" />
        </mxCell>
        <mxCell id="VfZf6pHmzGxJr0AxBlC9-36" value="" style="shape=image;verticalLabelPosition=bottom;labelBackgroundColor=#ffffff;verticalAlign=top;aspect=fixed;imageAspect=0;image=data:image/png,iVBORw0KGgoAAAANSUhEUgAAAJkAAACWCAYAAADNCipvAAAgAElEQVR4Ae19Z1gch7nu/Xv/nHvPsa1Ch4WFhV2qmh0XFVBPjp3EcS9qgCTb6f2enJPiWEKIXrZS1SUkVGzJLY5L3FTpXdXdVtSBre993m92MFHQLsqCbGT2eYbZndmdXWbe+cr7tf+F8cf4GRjlM/C/Rvn444cfPwMYB9k4CEb9DIyDbNRP8fgXjINsHAOjfgbGQTbqp3j8C8ZBNo6BUT8D4yAb9VM8/gXjIBvHwKifgZsaZB6PB1yu/XACcANuj6zgATxwwIVeOHAJ3MvFBTc8cMo+oB/K0juwX32PC0644YAbdrjkfeoRlLXH45KvcskxeVx+n7Iov1H9Hiecsvfav3ws7bmpQeb/QjgEPISAHYDDA7h45R3eDXzu/nJxu5T9Tr6PBx+0bwAtKmqIWxfg4XvkwScEqt278Eu8ICT4nC547G7lh6jYVD86xtffbJARWbygAyLFCwR3P1zuPgVRbreCFILHTcmoXHFZuR0AF4+6donkpPSkTKLMu/or5NNyLIK5H3A7B8QZf8bgZYxja+Dnf6NBxmtNODjcvbC7roiKo1pUH71uoM+jCDbBoscNp9sBp6tPln4P5dKX+/keykZZKMJUxBCnopE9onqpfrmI9PPivNcDXPa4cQX96EcfnLis/owxv/5Gg4xqkYKKoOiHG31iTXnVpqDKCbi4OAAXbTcvMBR0CsAIMlUQKradA3D2A85eAJe8C59TajkAuwPocwK9tNyc6IdL1lSkBDw8TuV9bsrBm+PxjQOZ6gxwfd5rwotEoYnU5wb6XWJMUaJ96gKOX3HjyGe9ePXUBezuuoBNLedgPvp3lBw6i5KDn6Ls0CewHvkUG5s+Q33X3/HKmct4+zMHDv/djfOXHLjU7yGe0MfDe7/PDre4CAp4CUq7F8yK9CMWqUlvlsc3BmSDwaU+h+uSSCmXHfjsPPC304Cl8QJ++tYJPPRKE2ZuaMHtNY1IthyFzngMmvJGhJS1YFJpG24raUNweQuCyxoRUtKA0OJjiCw9hhhjA3TmRhiszbijsg3ztnThiRfO4DdvfgTjkU9woPsLtH1+EZ/3OnDFpUhNATk9XJdThCGlIwF5szy+ESBTQcW12+0eWF475UD50c/w2AvtSNpwFEHWYwgytiCquAO6/A5ElXdCY+qA1tQOnakdBksrkqwtSLE2I8XaiERbCxKtbQOL3taBBEsn4s0dssSUtyLG2IYoYzvCSpoRWnAUmuJGpFZ24p4tp/Gzl7tQfPhDvPbxJXxkp51GHU212gc4bx6YjW2Q0Vbq7xcJQPVGC4iXhpcK7ssiIMS08npz/X1uvP/RZfz23Y8wY3u7SKZoYxO0xmbEmloQZ25FvKUNCdZ2CGCs7fKcr7lw3/UscaYW6MytA8dTj8lt3Bda1IKQwmZoy1pwz4ZOZO8/joqGj9B67jKoUsnWqTYfTUMPjT/hTSjx+uFEr9dJ8JJtqnHoccPt4Se/Ho8xDTLSSr0uh3IpeIKdvBIX4HJdFqDJJXL34+yFy9jZdBYP15+CpqwFYQWHkFTyLnSWtn9YVID9q6C6GoAEk7rt6mNyX1pFKwwV7Yi19SDC3COA0xQewQxLMxZv7saGhvNo/ozGGZ2OXrjdhJVyI9FpEI+DrAtvIjotjityLkgJ97nHQTYitxjVCyXXZTnRilfmsHvPufMKzvYCpqOf4u7NrZhcdgyR5c1IMrVAb+2GpurMgJRSgcC13tyGBFOrLIO3j8bzRNNRxJsaEGtpRUzlcWgqTiHSegJa2wnEV55GdPH7SCl/F0/sbMHmtrP4mB4E/1e7B0QbHVFFsF2B09P3JS9ndyk33Iic5cAPMqYlGfkk9F4G7EoQ57z35r4IoOrIcdxZ3QZ9WTPCC9sQbj2OyA2d0FQ2yoWdUt45ACYVVOqaQBOwBagu/QFTX9GJeEuL/J5ES5PYecnmIzCUvouE4reRYOlBvO0kwsq7EVTcjhk1J/G7v51Dw+de8td1Dm5XP654pZuH0stF8wGwf41MujENMq/xJVaY5/IVOJ1uvH/eiQe2HoG+tA1a60fQWjsRX9GARFsjkixdSDD2IM7SidgqBUgqoLg2WGjcf7n4A0mg++PM7eIgJFo7xHngb4gztsnvi686jkjTh4gxdiDZ1oK0mjZoTccQln8QUyva8cALf8fBD/oVypZE75VLItrItdGeo8X2dXmMbZAx1Gd3ovfKBTGQN3dcRFL5EUwubkZyZSt01oOiEg2mU0gs74Kh7CgMpvcRZ2qA1tQp0koF2VCAoXGuGu+D7auh3vuvbNNZFC9Ub+4AlwRTO+LMHYg1dyHG0oXptsNyc4SbmxBsbESspRmp1R1IsnQgpqgFuuKjWLmvG299qECKUQW70yGq0+n6+9cFY2O7kOQsCVS34lVmHujBrYUNiKv4AAmlDUisOIKk8mboLFSRJxBjPQ69sRUpRvJeDdBXNA4Y5SpA6F0OXtTto7VOsHXI98Uam5FQ3oIUSxum2FqRamlEUvkhxJSdRmJZC243HcKMqibEVXYgxNyCKPNRpFYcgq62FZPLGxFT3oRVL57Gu59QRypRCQb7vy6PsS3JXBfw7kXg3h09iC08KBcn3nwI8RUdiLMcR6qlGwYTL2Q7dJXdiKs9jtia42Jka22n/pFaIMflXfh5LklV3bIkVnbBUNE5QGsQdCMh2XSWBiRYm+V7ddYuRJs7ZaGK19k6EW3tgLaiS7xPSjfeMImWblkSjB1y05Cn09naEVJ0FAbjMfz6zc/QSqPU8/UJGXy1IBtwv+kR0vGmNcFUGCUvyyV5Mk7J8JIb00GewoHLYLYD0HwWeKDqPQSXvo3QDV2It7bjdmM7Uo2d0FWcgqGqTfHe8t6F9o9/hfY3LyH6J3sQvboOUVnbELGk1ucSuXobon9Sj7j/9xJ0a96AruB9xBqPIbayGbG1bYitaIXO1op4LgSeqR3xxjbojR0wmDqFHlEloyoN6Vzoje1IMnYMSFKV3rheLk5X0SS2XHwZ+bsexFZ2IaLwPaTXtCKnlfShXcwIOgdwX5Tnl6hSvdEFSWlSuTXGWyWrRAnRcvNIPb5SkDHerD7IxLskmUvdwkwbh7jlYsPayRA5cIWulAP45ItzuLv2KDTl7yNm42nE1p5CXOkRJOe9gejf7UXwL3Yh/P5KhN5nRcjCUoTMLUL4nEKEz8xH+D25CL0rB8H3rPO5TJq5BhNnrcNt6bm4bV4BbltUjKDv2xDxxCbErKiD/r9fh37NO9CXHkV8RRviqttFpZF/I5AMJsW5INC0NoKyHQmV3dBXdENv7RoAmQrA611ryg4jtaoHydZuaI1t0FZ3Q1vZjLjidzCl6G08/MIJtHzeC5fHKXF+alLevgRQXz8dBSpXBub5lGqW1IcL9j7aISP3+EpBJv+y2wmnkKheUpFZEX0ekO8SDohngKQrIGkwwGWc6AMe3dOESFsT4gqbkPzHBkStegGTH6vAbfetx7/N/G9MnvUcguYWYnJGHibPWY+g9DyEzC1A6LxChMzPl0Uzrxi+l0Jo5hUiMiMf4XPyETprvYA0cnYhojNKMHHWeoQuKkP0Yxug++E+6H7/V8QUHUR0VTM02zqhrWxFXGWbSNgBJ8LSAa21A1GDiNqhwDUcqUYwJ9k6kWhshba8CTFVHYjd0CmSlrFTnakDqVUt2NjwhZw/8TevOOHyXPJmjjjR77ZLFgp1yIAdp6BuxFD2lYKMqcoKkrwA450lBKPkQQOuXgkYM1wkPLfrAj4B8Mybp3HbL19A2FPbEHK/FWGzihB+xzpo5uQhIj0PoXfmImVuJUIz1ssSkp6L4Iz1CJmbh+B5Xy4T56+Hr+W29DWYODcHIQvWI3RePsLn5SvHm70eIbPXY/LCfASl5yLo7jWYfMdzCJ6Vi/Dvm6FbtRPJv30FBrNXndlaoTU3CelKbizRSk/Xd4hqOCCLr+iSkFSCsQkplaRq2hBpboKG4Ks9KTROgvU0/k/ZYfzolW580sd8Nm8mpZx7nn+F6iDA+qhN5Fy74RbNIS8C/vOVgoxiXB4CLiUFWfmnHXC5r4DWmOhGD7NUgbOfAP9V1YpbFuRDm1GKkDlrEDLrOUSlr0PYnLUIn7sOEQuLEDKvFJPnlCNqfj4i5+Upy9z1iOSSkY+o9DxEzlmPiLn5PpfwjFxEzOX71oPPwzPy5P2R8woQNb8QYXNy5JjRC4vBJWpuASJm5yLirrWIvHOtqFbtD/ciaf1B6G0tItlirM1isKeNAMhogzHmmmBiJKMJelOzEMxxxnZoiltwe2UPwsoOIs52BpNMXbh/yzE0fdwr5K0k5BJIzJMjskSV8mwreW1ixwUML+UAXynIKJVJoHr4j4puVIo1GC6iyapoTBe6jp/DHzY0YsozOzH59j8g/o41iFhghJYSLKMAoYsLELR4HSbM+RNC5q9F+OJ8TJi3FhPnr/uHZdK8dQiaq0g3SjlKPV+LxgtSgiw0Yx1C0nMQlKEskzNyoZmZi6jZ6wWwYemKpAxakI/gbxch+N4SBM3KxYTZ6zBhYTE0y7Yh9Y9vYYqlFbqqdgTbmBLUGpCXmlDZqVAupibElzdCX9aIVGsnplSdRLK1B+GVbwsBPdXShRmmkwgu6cKM2sOob/5Acul4/gVgl5hMqcgwltEoz0YIYcBXy5Pxn3Q4VJXphN3eh34X/UvFBus5fQU/Nb2Lqav3IvLhStx6by4mzVuPuPuq8L/T1yBmbjnC5tDuykXoQkqZ9YiYnYPI9DUIz/gzwinh1GVuLsLm5ok0ojSLnlvwD6pzsBpVn0+ck4NJ6QowxY5bVIiQRYUIXlgAgunWbxdgwiLFvqOUC5+zHqFzckWFTshYh2D5TfmInrUeUfcQhEUIemIDYp97E1M2Hx8gemmTXe1hDociSTA3Io4As7aDNAvVcHxZM+LKmqCztiCqsg0J5qOYQqlJgrqiA2HGLiTYmlDZ8Ak+9ih1V+Jd9Sr5K5Kt63J6Mz5GBmhfuSRT/g16P33iXVKBnvrEgfLqlzAlezd0T2xFXNY+RD+yHdpZeYiftxa33fVHxC+sxoR5OQjjRU7PAe2u8PnlCJ1bhuCMQgGUJkNRkVR1Yo9lrBdgDTgA83IR4mOhWqRKVQFEEHGhquUSMzMfkbPzEZyRj0nzCxC0sAhh84sQmVGImNkFCE/PEQkYOn+9gHPivHzckpGH4EXliH2gFiRh6RD8qyBLoc1nU1KUYkytYASBXJ+2ogkxlY1ILj0jtIq2tgGa6iZord1IMbVDX3wEwaZW1BxswIesqBKJxlvbISaKvB7k+QcKtdEFGakXO3OelNIIpreLmSWlYv0DVUCkaKgt+1zApleakf6TOoQ8thuJWTsxZeUuTF1RJ2qOkihyQaEAKiyjQIDEbWN1ib07FzE/3gWN5Siiq1oRb2xRuDZzBxLNnRJGIgenNyt2F6WTANLEyAWD676dB3/7I81H8ds3vhDOkZdGVIhEPWmnyZZA8SWfH1WQ8d4Q/c5bgxyYNzfF6VK4mV53L/rsjLG50XyyH8v/9Br0j2xFavYeTM3eLCBLzaqD/tENIonEjppfIB7ezQCyid8vFY9U8z0bNM++IY4BbaokUxsmWRqQVN2jqL7SJiQymO6NNFC1MtbpD0T+9hssDL0dwZpjvUAv06YUO9jjVAqXRwRho22TXWCuV78dnkt2RYJ5FDKQQtlt7xdmn+8pO9CMb62qQeyjO5Cw7CUkLN2DtKd2IyVrF5KWb0PkvUYBGVXigNS6CSTZLTP/hPBFJImpdosR99ReaC0NiNzI4H6TZGToylvFeCfhymgCAWao7AIzev2ByN/+WFM7tJZjCMs7guq2S7Dbz4owo8lC3mykHqMqya44yHCx+NUtldT93qod0Y2efnR9AjyT9xo0D1ZAm7kTqT/Zg5SntiAxawcSlj+PtKx6GJ7YhIlz84SnIsgozchX0a4aANwYVZnRc/NE9ZPw1dKBuTsXQU/UIC73HeirWxFrIpHbqSzeTA2DRQlXkXfzByJ/+6OrPoHe1IgEcwMmW5vxcscVwMPKT2oe6qGReYwqyODuh9vlkFgZi1mZvUnNebEfeOvIx0j/5YtIW7oJqUs2YsrqndCt2oHYVTuRtnIXpi/ZKiCLe7gat83KQdj8ApAmoPd2s4AsYn4BNBn5mDxnHSYtzIdmQRE0d+Qg7N5yRP/xVWHzSd6GlzchoqwZSZXHRU3GljYisTpwm4wRgUTLSeir3kO0pQeplR+g/Qzjdue8tNJYABnvBlZgU5g5WRF9TgpZt731KaY9uQ3RyzdAn70BU5/ehmnZu5C09HkkL92P6dn7cPtT25G6vA5R3zUL18QLQi+PQKMEuxkkGamU/0hfi1sX5QlxHHXPOoViWVSK0Dl5CPvF80gpbRD1qDG1ikSjQ0CKIsH6Zf2AP4l1rf1ppc3Qlh+V4yeb2zHJeAL317Sir08qCEYGYaNtk0m0n/q9T0k7ueIG1tS8iZSlNsQs34epK2uR/NQ2xGXvQmLWPty16mXcsWwPEp/cioRVu2QdvLAIQXPzBVikE0SaSYho7KtLuVHmF4nKDGa0YlGBhL+CZq6FZk4BJszPR+yP9yCttFFSjZg1y9QlZu9qTf+cD3ctMF1rO+28mNK/IcX2ITSmNiSUHEGkrQN/fOkMPh8xiI02GctwkYOm/SV83gf8ztaM2Ae2Ij5zF5Kf2YzkZXswbcVeTMvcg+TlddCv3Ib4VduQtGonpq7cg/hHN0oGBLkn2mLkrW4mkIXNLhBOjf8XQTY5fa2YAuELCkFOLf6ePNySkYvgH9ULk59k60ZcWYsY/5JiFCCFobE2INn6gYSjSJ8wKVJoEusR7OoauV4cgdlk/Qpj/IW0RGIudB88zKrwxruVMujLEsJY/txr0D1Sj9Rn9sGwogZ3Zu9Fana9LEkr6hRPckUd+Dx19R6hL7TfKQPV5GCDXw1SE3Rj3fD39/vDFxdAVOgdzyH6mTpEVTVKEHyqsQMxzKqtoJfZInlrrHiKrWKyZRtiS48h1eyfQ2MdKKUcCWGVGKb3ymTN1NoT+OKKlzpze9BH2caKQxrV7i+8DO7wxF1gIPMwnKpyYQp1zHw4buvt/YwEBj53ApnPvYS0JTtgWFKHaU/XI3XlNuiWkg/7EmR8npy5U0A2ZdUe6FfsgGZRsWLkD/IqCTJ/F+dm2S8314ICoTkmzM0T1ZlY2YZQc6OQtcxJYxIk030YhmKwnBIu1tgo1e7XUpPqdn+x0/VvnREi4BxD6uw4RDZdEh6ZWDr8R0Ag62XNNr/Nyap69qdRkN4vcbALOAtg+bMHEPdoPZKefgFJmZswPWs3EpftRtKP9on0IrhEenlBRm4sbeVuJCzZKgCjxFKl1mCADX5+s4Dq6v+DMVnGSul5htyVA83sIkT8aj80GzuEsGXNgqG8BWm2LkmQpEPAEjuqvDhLs1+KYzDI1Ngpt6mSLc14BM1/5+VlqR1wXqIA/SLNbhjIpEaGriMjENJ9UKl0JsYveICfG48h/sFaAZj2qSokP73B60G+jMSVdSK5VAlGcHHha/JjsY9sEHCpALv6AnwTQBa0qEAJuM/OQfTiEoTdzYyOUsT/+W+SP0ZAMFmRkonOAEHHSiaqQa1ZCUGpUmuoNYF1re3cF1LUiKff/kB0pt0uskRSFxQebfgwC0iSydd4aQrFDuuHx/mJkHl/rG5D5Pe24PanX0Taqm3QZdoQn7UFKateRFrm88KNpazYKaASNZmtgIwAS1uxE5r7K5QYJTMnvCpSlWrXAt7VQBzrr9XAPDNGmKIU8p1iSSGf/G0jkksU6oFp3VGWZsRZFaCRiiDgmPI9FIAGb1OlF7cRsFxzG0HKwhkeO7KiGe0nKMnYB5ctr5xwMBhwHb2tAgKZElBlI7d+sFMgC0AY/TLubUDCw9uQtHo3kjK3Ysrynbjzh29Av2IfklfTyN+Ib2XvEI+SkouB8KRBIEteuh3h3zYOsPuDQaYC55sANO1d6xCxuFhCakwnZ54aY7Yhs/IRtmQjEo3NQspGVTQj0qp4nUzFZm3BYDBd67kKrKv3c7ss1S0Izm/Hz149LmLsikQ3aYQLbTBsoywwkHkbD7KxCRtbsvXlnkPncEf2BsQt3YHk7I2Y8cN6scGSl76MGatfgn5pFVJWbkJiZr2AjPYXQaYCjZIs6YmtmDyvSAx8AoyLKsUGv1YBd7OumYfG2ObE9DWSgcuUJua3Rd9rwoS71kDzi5cwxdgqHiWlGfPKWL9JZ0AKh/1QHCqYhgIZ7TLWKCQWtyG1qgFHzrJw2Jsuo2Y0DxNmgYEMDmlMKEaZ6zw6P7Tjzqwd0C7bh9QfbsH0ZTuRvLIeCU/VIyFzG2ZkbRcJZlixC3FPv3RNkBke24xJ6YoXebUUE+bfC7qbFVzq/xW8qFjSuZlCTh4tZk6upDoxSqBJL8Qt91kxPecIUio6EG1pUepGCTAGvq3Dy9JQgaauCThVjWotx5FsPIjYgkb8puEsPA6nqEmmxbPny3AffkDmlLI0J9tNDn7wC7g4SVKwCtKJs1eA7/3Pi4hathepT29F8hKF+1IN+qHWoiqX7xAplrJyLxKX78CMVXsR/T2LJBeqJ3t8PXTOnOauHEQ+uVHqS2lHxVrapQnf7UWtiKj0711eLcGufh1nIVnbI8e9c3MXzruVNqRs4Xw9SRo+Qca6x6uPpnYr5JpAs/dfFs71T7VHkfBABab9aBd0S3cJYz8UsAZvI8j4mvZYcvYe8TanZtVLag+ri8bBNTS4Bs7L7FyE3WtCzLNvgPn+zNpgUxnaZazxvBo01/ua6UaUiuTf9KYG7O/+TOzuS9KRb7DU8f3cJ8hYcKs+BFTqC++6ny6ly439DacR+dAGTM18HmnLqmHIfF5AMxhQQz0XumLl7gGQCeiW7UDYwmKJ4Q2czDGayjPav1+KVmblImzJZsR6U39SzF2IsindHa8XVFe/n61JSYUwMzemsAE/erETLjiY3zhQSncVJIZ86RNk6icGV3dTSw5UHbuBTy/aseAn26DJfB63//gvmLJ0l5CuhixFSg0FLnUbqQuy+5RkSVm7RfrpH92E4Hne7NdxcPmU5sGL8xF0dw4iMooR9afXkVDZjhRLB8JsgatKAZy5EzG2RiRamqEr68CM2g584exVKAwhR1WE+F77Bhk9VWlfT4lGaLnlr93hgsOpSLnfVL2F0PtrcMfPX0bc8jqkZB/AlOwaSTxUwXSttQoyepYpXpDFPlCtVHqPq0ufABMpuSAPE+fmQnNnLsKXb5WeHOx1RieA1eVXS6brfR1b3oE4WyN05WzCfBohxnb89fQXkLE/1zFnwDfICC2vxlQA9o8DqA53fQTDsu1IfOYAUpZtgT67HobsHZiRvQeJ2ZvF3roWwLidIBPjP4vrPVKdFHWvRckV8+aNjbbKGcvHZ8nf5MV50MzMk34fcTnvQF/ptcWYURsg0OJMXTBYmxBT1oik6pMIKmnDs299KGQ7h5EN9+EbZDLQigdTpFi/g6yvEhC/cNmNpesPIC1zP1JW7QdpCWa3Tl21Q0JHaauG510SaJRkaSv3YkrmLuktEUGObBxkfiVZRMY6sNyOthnbJsSsrpcAOZ2AxPLADf8EW5f0cxOvtbIdcSXN+O72M7h0Pa6l36RFFn6wGYoXZA6XMiDvSj9wuKEbEUt34luZ25C29C+IzdqN25/ejClPbkdS1j4kZ+33K8lIxBoy6wRkU1btk0zYoPnFEJDRcxq3yXyeg8j5rP9ch1vuzZdMWs19FVKIoq3uRHKx/7CSP0nHvmcpJUcRV9UjBSdpxYeRVvGB2GWcgDfch29JJv2qOP2RD04fuoI+SUIEvp/7nqg7SqKrVSJVoHiK3qD31fsHXq/YiZRVu2HIJmm7E8lPbsGk2bmInM9QytjPfB3tm4RENdssUJIxIhIxKw/J//0GYmvYIyNwSZZoaZWYaLz5NBIs7yHN0o5QczcOnCS15RyYiOcPbL5Bxk+7lU4wSu8wB6iL32r6BGmrtv8TuAbA4w9c6v4VSkSAIEvN3onExzeNg+x6pTeLa5hzlpEnra1ifvKCZLhK0+MAbTLWejIZMt5yCgmWg0gxtSKovA3Vx76QaXmktYaitq4GnU+QSeTAy+5LXzSWtnmAnxnfRcwjtSKthpJYlG5DSbirQSjvW1mPxJXMwKhDwsM10kuM6pKl/6MtCW6G40st6iKlOxH7pwU9uVFSfuKGGVbypTK/zOY4AYO1QQLyQWWt+P0rx9HnHiFJJo1eJHx0BZz+QYfi1Ed2yW5NWeGfB7saVEO9Fo4sexdYKa6934bg2evFJhsHmR+235sCFTxnHcIWsD0Wc8/y8O/3liOp8NiIMP6MYTJQHm/tkp4beksTIso7sGxHi7SfGhFJpth2JMqUznykM2pfaMWkhzdJp52hQHO92wayL5hu/Z9GhLCR3bgkG5YUj5xXhEmzcxA+z9tDbV4+/n1ePpKffRu6qsApDBYWs+eZdA2ydkgTZbamX1DbIlnPIwIyCjG7DAdl5Yob513Asuf2I+Jx5ucrKnEotThcw5/vo3cp71++HeELihGWno/wuYXj6nIYtlnE3EJJ/QmbmyttsljldNucPBh+8bL0r/WlCoezjx24OSZIajzNbPbcjFhjJ9KsLTh5hfb5CNhkDICTtmAyIudsv9ftwLSV25GW/WWS4fVKrsHvJ7hYMMJ12rLtXhJWAZlaa3kz2E2j9j+k50u/NqYChc5eC4KMjfdYx6qtCdy7ZLoQjX32M4sr70ZcVQvijJ0ymvHYp+dHCGTeWUWXGEJy98PyfCeCHtiMO1fuAGOTIoG8mRSDwTNcw/+fQDaHTeoKRJKNg8y/TUYbjPSFZkGBgIxeZsjMXGie2AxtTeA8mcbSLiDTU4KVdSG+pg0Jxi5EWo7j7VOfjRDIiC123aZP6gEW/5cxN0kAACAASURBVOlVxC+pQcrqfUhaoeTkDwbX9T4nyAjI1MxdMDy2Ue5CtfEck/RGTQIMQxWNie9OZ1M/0hcF0pyPDkDonByEP1INclzDUYk+32PrBpsec9wOu2lzoBg7N4YbG7Cz/cIIgUwC5EqP6g8/vYi7fl4Pw/LNw0rjGQ7gBoOMPcgo6tVmweMg8y/JyI2FzC8EbTOSsgRZyOy1CH2oUjHYA+TJOCVFBRk9ywTzCVGd4eYWbG+7OFIgc4Dj7Zi7v//tHuiXbRDJw/x8Gv7DAZKv9wwGme6haoW+8HakZpvNMSFNvkKpOBTIgmetQciDFdKo2KeUGgYAWSdA7zLOygnEzdCZTyKhogWhphZsaBohScbiEHjYfw/4c817iHmkGqlZe5Vw0srAQaYCkOpS+4MKhb4YB9mwby620VLV5dWSjBIoUJCRwkhmqVwFS+aaEWc+Kc8nlzfDcohtQEfAuxRF6ZHRpXj0uVeQ8MQWpGTuE++SjepUkAS6JsjYIoocGe9OuUPHJZlfsI02yCjJSGEQZFKZbjklWR4TSxthfO/TkQGZYvD34+PzwO0/3SMGetLyekzP2iX8VqDgUjk2giz8P8sRSo5sHGR+waWaEaOtLlkzQInI/hpKP7RTiLc1Y3JpAyoOfz4yIJNZOy4HDrZ9jMjM7Zi6aicEZNl1SMxUeroGAjTxLJmxkbkLISzDZx/YdE7/yJPW5+rJHF8P7QQMBbKRNPw54Zggo00m3qX5BOKtjQgpb8Tmpr+PIMjsDrzwRiNue2ILpqzcjuTMeszIYg6Y0jAlEJCpjVYIMtYYkukfB9nQgBryRhtlCiOhomfAuxxMYUSYGkeOwnAzmRv9+N2mNsQ9Vospyw8gfvV2pK7cgSkrApdkDI7Tw0xdqlQoUZLx7lRO6Lh3OSSwBnuz6flCxnIYBuc8cWoKMzGiHt8E3cbhFff6cg448STG1o1kTgeu6ZQeG0nGbpnOd6B7BAx/eg6SZeux48emw4h9rBbTMg9A/xQN/jppihKIFONnx0Gm3lD/2pok7OT57KPLAWY5SofwOXkSVorbEHiAnNwYQZZkbER0NeektyHR1INoawPePDMCPJmAzJvj/9ia16B9YgOmZ+8XkCVn7kAKs1rV5MN/cT0Osn8NXKqEI8g4B4rDxVhUwtE+k+YWIulXr0JXMwKSjDMzrT2SRxbNAhVjEwzmLmnJ3nQ2wAD5YP7jUq8T83+xD3HLNmN69vMwrNqudOPJ8l8o4g+E4yAbAZBJ6SDHJOZKq60Ji0uQ+ty7kh3rSxUOa59NCSWRkGX7UIIs3tyBqbZjYCf2wTi5Oht28OshM2MHf/izv9txB6tgsuswPWsvDJkEGbshBh67HAdZYCBT22exYokx36CZ6zDhfiuSixpGJGkxztYEg7Fb5mkyI4OV5Oy6nVHbivPk6QMhY9UPM5+/6/RFpKzYLZ15OEgrcfk2eZ0yjJK3cUkWGIhUtXit9QDIFiqZsawmD1u+VWntOQLp1zEVTUgu75ZeZTGWdiRZ2xBefggP158AG/yoOBkstYZ6/k+STP2gsnbhaNsXMCx/AfFP78aUFdtAeyx1xT4krgy8kGRckgUOQnrjtMsoyZjmo/vFSyNWSEKQpZb3CMi0pnakVnYiuPRd/Pi1c1L1rWJlKGAN3uYTZHQv3z32MRKWHUD803sFZMzFn5b1AvTDqBAfl2SBg+haUozb1ZI4tipg3zaWxKX94W9g3WXcCEyR01Q2YkpZj7QGjTG2Ia2qA5OL38Z/v8cZkwEWkgwg1A3sP/gB4pbUS2X4lGW7Eb9yJ6ZIQW7gsUs1rERPlS3EoxaUjJOxg3kwP89jZiuDzf7PwlxEz8pH5P0ViDYdRWJND2JLA2+6Em49Dg5uTTY1IbbyOJLMRxBlbMX+7i8kY3qwtPL1/J8kGd88ADInUP9WD6If2yFsf9rSehlHI3OQsgP3LgeDjBM4WNQ7zvgPX/pxejAzY4M4aPauHGhX10sqDgs/6AUOy4P0kfLDSb+cEaAvO4YYC4/XJK1CG86y0JtE/fAevkHmVkG2DdNW14GSjDOPpq9UCkD8qcNh71+xU0Yrqz0wxmOXwwRa+npMXlQgYwwnpOcjbs1bSKnplgYp+orugEFGb1JfeRK6sqNgsTCJ2ZnVreAY3OFD7BqzlQYkmUcBWczj2zH9qZ2DQLZnRLIwVBAydhn67dKB2CWzY8eTFv0DLXRePiYsKkTsnesR9nCV9BJLqeyEpuQY2CwlUEnGqb4xlafB8JLe1oYw0wms2NMtrdaJkeE+fEsylxu73uyC5tGtoi4pyfSr92D6SqVxnQqSQNaSiZG5C5H3mQayMMZB5h9gNPwZq7yNg83uzkP8r1+GpqZNQj8syB1O92t/IEwtP4oo6wnobS0wVHB4RDuK3vtYBuUO7sLpD2y+QeZx48AhGv47kZa9TSQZQTYte7d0RgwEXOpnCTK2VY+53yb5ZLTJCDISjL48q/F9CnUx6Z4chHzXjKTio4ipaJGK74TK7hGxyTgETGPphL6SRSktiC1pweunzsuQNmkn4A9d3v1+QfZm2zkkZT+P1KytmLp8DwxP7ZXgONtvqkAJZK2CLPaBSsmMHQfZ8KQYbzLyYxyFE/nz5xFf2QJ9WbN0WOT0OM7F9Cep/O3XW49LU2Lm9WuNzZhZexyfXubseDapk5TWYcHMN8jcLrzVfl5Alrhs4z+AjN2qAwGX+lnmlFGSsZCE6dfjIBs+yGiTxczMR3zhQWiqWpFa2ARKsWhr+4iATGs5hXhTAxheijE148E9VJVssw647cqg3OGgbEiQDXzQBXR8+gkMWS/CkLUZdyyvh2H1PhhWbsHUEcgno8HPRngEWtKSLQhKZ91gnlAZfP5NV4mcdRm1sAj/MWstQgaSOvPFrAidV4j/uHsttL88IKnRnKXEbtUcjMqO1UnlgdddxplOIMF0BPotxxG0/k0Ut1wBnBek2YqSBzaAFJ9PfIPMDZw6fxZTn34J+hVbcPuyXUhYtVvY/pEAWcoKtvHcrVQ/Ld2qdL32gmy8q48i1SmtyB+SzWfm8K3pudKCPmLmeoT8oBLxf3oDCRVtwsoz34vdEQkyDvLypw797U+ydIu65EyARFMD3iV34XZz9OV1PfyC7Jy9H7N/+SL0K7ZhxvJdSvPhrM2YmjkC6tILMsYwU5ZtQ/iikoHWUeOdFvMkIZF2l25RKaLuyhHJfuuiPExemC8TfeN+/RIMJUeltTolGUEm7Z7MrWAXbH8g8rc/2dQIbUUPwkub8N1t3ejnfBACzOmU2arDRZpvkImzCvzg2ZcRv3QHpmfuhIEpPtlbkZa1N2CbjHPHpcB3ZT2SV2xH1H0mAZnk+rOoxE9Y5WbfP3FBgXjaGrbTYr7YvFxELirGrXPWIuJ+ExKKjwl/FVfZpkwNMSvjCDkniWDzByJ/+/XG96CrPY2Q0k7k/O1j6YciLYRdDqV1xTBR5hNkaujgqbK/QPf4DkzlNLdV9UJnsP5SNd7/5bW3nSeHfDGlO+6BSrHLJNefRSXfdJDNywdnXTK1esKCdQhZsB7aWXlgCC76dy9JzhjVI3tVUEUSWGzBySlxI9FpMd56ROacx9tO4tAnl2jtK1S/DNAdJsL8db/uZ2tFlwdr6t5F7CM7pRsiJ+6SMzOsCFxd0vCnqkxaVY+k7DppukI1KfWX4yCT0T9R6XkIX5iP/5vxnFIocvc6RC3dKtyVpqJD6YRobBGgcbAqQUb6gm3R/Ukqf/sTqloQWXIY99WdBId/c5YD2+8oE+KGb5j5lGS97NrvcGPj2x1IeIygqoM+a6v0KEtc8XzAkkxmW2bvkp6x7H5Nu4xeE0EmNZjfcEmmychHEA39RflSLEKKZ/KDldCvO4iE2hMKVVHWhmQjDf5WxFibJWExkeNqRgBk8TxmcSOMRz4Tw4kgI0em1ONeNTnQh2DzCTKh3ZzAgfYPkbTkgDRZScjcgumrOD7whYBBNiXbO1B15S5psc4UotAFReMg895ccXMKcOu8tZiQsRbJ80olvTrsV/uRvOkMYkrbJDMipbwDU40d0kog0qZkSXBS3HDnXfqSZhzQmlJxBu3nHYoU89hlIqAgzTVCkszjHZr6+eeXMGv1Xmiy65C2vB5Jq/ciZan/sTb+bLXU1cr4QRr/7BTE/rExD9Vg4qx14F18s9tkbPTHzJPojCIwbUdtm8USt6j0XATNy5HwWszcYoTMKkRY1g7xJGM3dENXGnhDFV1lD7TlDdCZGwWUsZVdMm1uak0nEsqOIKTsFH7zahtcHs4gd3sB5gSc/V6uzIf4GrTLpyTjYdmcuK8PePD3LyKGje9W7BQbatoQQyL8geqf9q9SODIVZLTPdI9tkn6x0qXmZleXGUrH6rDZeQIwtuNkt0QlbpuLyelrEbuoFLfc8SyCHqrCjMImsbliyptgqAw8y4KDWOONisPAVB4G1hOtbYgpO4bEqm4Zc7PvNNWiA3a7ggXhMNy9I+ddOj2XpG8/55r/V/Xr0D5WP2D8T80MnMIgqNTERUoyTidJXLodEYtLwY41N7skowRjxTcLQgguFuoylXrSPHZQzJM2nSEzc3Drf5Yi7s9vIa26G4llLUgytSHaFjijTx5MV94Kg+2EOAuG0kYkWzsRXd6KCHMXHtqmdLkGetHndChDtThIV0Z4DRJVfp76kWSXpJ2nwwVsefsYEh6sw5RV9UheTbUZOMioHind6GWyxwZBRtDFfN8K6U9/k0syMQm8E0WCFxZIJ2ulZXq+5OwThP8+Jxe6/3oVSTUdiCg/KpIstaIbmvLGgL3HFNMRaI1tSLCdEZAllTXAwKyLmtOYVHAY29vOKxLLflFgpDL9HAeuTKjxgy7vbp8g83CeElUwgOZPPsKdj21DYvZupD1dh5QRBBlVMEGm8GW7JFgeNPcbkOqTvl6qvmXK23ylbVZMRgG4yMykWXmIerpehprSc5QpulWcm0SDfAQYffMRxFi6EF1xSmorE4wNiLd1Q1vehNmbW/BFPz1JN9B3SaQYFaeb7qXbrWwfHsbgE2QCL7f0W8Qllx1P/HoPNI9vQ/LKHUjLCpwnoyQjjUGQcaiqcGbkzZZsQfh3Sm56dam0fsrHhIx1QlVo5xYiNl0pbZs4JxcRT27G9PJmaG1Kqk1ydQ801hZEmZqQOgKMvoEGf9UJaGzdiDcdE6NfV3UaupxXYe0k+UoEsDu1E7iiKEkBWT9l2fAfPkEmKUMeJ+zkRzxA0daDiHykDslZ24Qz+ydD/jp7YhBUBFnaip2Ykr1XQCbAy96J2Adt3wCQ5QrRSpDRPIidp9hot7G/xeNViMt/X2od1TARDXVKGfJX0jLARxGIL2pC3ac3tiKu8pQM6dKbDyLW1okIcw8e2nQMH5MMc5K6UEh+R7/IMaXIyDUCOf4qRkUHexw0++hg4LWGj6FdekAAlrqSQAusVcFgkE1duW8AZNOe2gP947U3PcgiZucgamEBaBqwhjJmQTEowSY+aEba2rcQvalTRjOnkcE3NouanFLRLS02dVUjwOiXt0NnPSEURrL5fSF4J+U1w9RCI/8SnBwB7YJQF0K9cnCIm0Lnuubc+1aXTgpFxhBclJyXcb4fSP/xPmhW7cC3srdLcDtQoPn6fPS9JpBLYhSAfFLQ7BzxxCIXFGIyB1d9zR2D2+blSiiI1d2RtDHZ4okjajKUMTW3LSrEhJk5Yn/xf5JZn/dXIOGPb0JbG7jNpUqsa631pk7p9x9XcRyaitNINh7F4uo2nGfiq+s6pqaqUukaa5/qUmJVnNolLaQ8Ek74n41HEcVi3+xtkmyoUhAEC/kuFTSDt6vbrncd/1C15E4xgVEyM7ygYrV0sHSz+XonNoYvKpIbgXQMF7Z2Cp6fK4FuxiPJj4XNLwABxhYDk75Thtj//otQFQxyXwscI7XdYG5RDH1TO1Iq2hBV3IJ9Jy6iz+0WfvQamLnuzT5BpnwT5ZkdLg5rhQNv9nwGw5N7ZezN9YLmet8/ZfkOaL5rxiS2rcxQ3HqqFUowdf11lmaUYEwnl8Yo8wuECyMHRi6MPFjs7HxoF5aINJv47WIY/vAG9NVtYtwz0D1SYLrmcdgKytYtlUiR+Yfw6L4PQEaBdpg02bxuOA39Ad8gExfCiV6Sb2IB9uOsvQ8P/c+L0C7bJ+MImdkqOWHeQaqUYHw9WKpdL7jU989YtRvxD9cgeGGRAI1ZopRiYwVkHKolIOONsbBQpJYQr5TCGQUCsFun/gGh3zPBkPOO5NIzbYcpOzE3QJJFGVuQUtUuyY4aYw/e//gc4LognqPbeYPUJSUZR9sr7iqNQRFnqH7lKOIevfYAL4JkJEA2dVW9ZGZEf98qthkzEijBxoIUkxuBiYbeqiL+dsYnYzKKZImaW4T/mJ2D4B9YYXj2LSRv7JJerLGljUi1dINjAK8pgQL0KtXjxthokzUhorAJv2ITFVxCv8ubyqMyr0MLp+va6luSecT0F/rC7b6g1A4w7//sp5j7w93QL92GxOU7hKVXpRfXlGYsDlEl0r+6Zo4Zx+sYntiE8O+UDRj7lGZqb66vs7qMmK/YYFSP/L2aOUpLgdDZBTKXctJDNqQVH5XpaxElh5HMUrYKpQKcXqQKhtFaMz4ZmfcOZm86jZMXexU1KVzr8DMshoM23yBjFgbFmJtldn1kMQAPu58B+TsPC8AIpqFU5EgY/kyQZA4bU4B0D1aJHcOZ22MGZHPXY/LcHIlJsuooOr0QIbPyxcAPWlKL5ILDSqVRpZJ8mGBqV3qLWdugL2kYdZCxyny6uQk1bb2A+xw4DnxASTJhdYQefkDWj15KUXqYjC4QY44Lwpm1nrskNtmUVXuGtMloq/2rEkz9HEHG9qFTmG/25BbQW6PaUe2yr7MU428jbRGUobQ+1ywqlmD4rZyxnrUV00uOImpDu1AIKSUtSkMThow4QtDYJLn7oyXB1OOGFrVg+St/h50Gkcch4SMy+mIeuXm1R+bhB2S+vyRndzcM3zVh2o/rEJO1G4nL9mLaj+qhzWQ/sy/pDBU017tmRZQUm2TukuPpH9+IkEWFwpfxAlId8SIKnUEVOi9fuKbJc9Yro6ZHmUeT/mAZ6zFpQR6CFhWIrcjSNWaw0lkJzchROLGMPPldpChifvKCTF6L2Rx4qo4KlmutY809iDM1wFB1Qmn/xDZQltNg7r7W3IT7NrwBllIKqvp6RWW5mHJDyoo5ZCP0CAhkJz8H5v+8Hkkr94AV5qmr9iNlRT2mZNZCtzxwkKVytI63lTtts8RlW6G93yJjkBmGIchIbqr2GUFG4pZ1AjeibpOBbfJcEoOcSUDlIXpxCSIWFmHC7LWYsGg9YhcUI+quXAR/uwwxf3hN7C+OkUksCbxJ3bXApW5PtTUh2nQCBuMxMCFRbzqOuMr3ML3wMMLM7dh7uhecLs86DrerT+KUDpLvYpKNnF0WEMh4B9he74LmwQ2i0tLYrPjJetz59BakrA68BoApQKqXKr1q2dZ92TbEfN8sTgAvqppNqgJN7LV5hUrV0yhLslvmKwDXzlGqihgeuiV9rYBet6AEkRmF+PdZ6xC6fBPSCo8gqYJVRC1IsHVIH1YVDKO1ZtFvcnkjYo2N0BpPQFt9GFPL3kNIWQv++M5lRS1KVgWTEPuVGDWxxQjPDaMw/IlLN6NO/Vj251cQ88RuTGcK0JI6JMncpcDTs1WHgjFOCZyv3CVg5ihpTpULmb1OpAeBRsCpxKci0W5A+jY7EKXnCTVBh4RJh1Tn8lu+9RzC00sQ+7MD0jcsZkOHdI9OK6XN1YaI2tFXlxpzN1JtB5FSfgKxVR2IN7+LyWXtePzFj3CZ4HLYAWefELBOOLxpPEpEvM81/F4X/mASkCQT09BxAS3Hz0kWRcLqvZKhkZb5GhKX1wRs+NOGG0j/UecwZXNS3TbQPqNaogQbDDa+FqnmJW1H0znQUDXPVjIo+Jw1kiGz10tjuuCHbdA/+w6msEStuhMcesXOOMw8Zc8KzQ0gW+MsjdCWtSOp5hSS2e/VdgqpG5vx2QVeOSdcTpr8bpFgDmam0gyTKkg3+hU55w8/w9ofEMhoKjqusODzMqpePI2wJ7chPmsT7sp+QcrcrtfQH+r9KhWiqk2VMqH3mvBwjbQ2mDBzjcQGo+YXSqtxguxGxDYZh1QzKEhPRN2Tj+AFJYj44W6xgxK3n0Fk6TEp+mA2K1sJsDsOuTCm2YyWmlSPa7Acg77iA4QVvysGP5MdD39wDsAFuBwKB0q7X4QFAUaOygNccdI+Uyj4YaHIz5sCApkSD+BNcUV+0uqSN2DI2oSk5ZugXx44hXE16Ai4fwBd5g5oH6xUyugyBlX7zM0Vr3M0pRiPTc826ttFEjK6ldkij9Yi9dl3MK2iS/iuoOJDMFQzNtiJuLImafJrsLQPPFfBMFrrKeZOhFiOYbqpFZrKFtQ1Mmwk1bRwu51weSixgH6vHUaDn5Ktl2ijOh2hR2Ag8/TC6aS45W86h/O9wJyf70P0M3W4fXngmbP0LMX4Zw0A+2Z4W00xizZx+U6krq4X1Rn7gwrx8oJn5Yj6osepLKObpaFj8e2df8Kkbxcj7tcHJE1aW9kOTrxNMXdLxU98WbNS/GHrhNamFIBwCm5S+eh7l/FlrTBUHsct5gaUHzwjRKtKrjsIJNpkcCslu8y88NhxEXYlX2zkTDLf+WT+gcy7wSmgd7scUnTS+Skwc6UNMSvqcHfWRqSt3AtD9gGZXc6pv3o2alm9D2mZG69ps6khqqsl2dWvCTSSwQRj1PctmEQKgxItPQ8Rs3OUuKFXdVJ9Mo7IhVKI7wuZtUacBWZL0CvlvolcyLctLBTeTUnTYb/8QuG+JtPWm52H6Hvy8H8XFiNk9U7EFR6UekiCh2qQmawjUVzrT8IlWVugK+4RHizC9h40pvekpI1lbanWVuljEZT3DooOXVSofI8S/FZSxUYQRX6AEpAk6+tTavEYgPBIMw5Fk7/R6cLsp6sQs+IVoRymZm1CQvZ2JD2zFzNWbUbK49VIIfB8ZNaqatHXeyjRBvYv2wbtDyok9EQOLWpugZC2DKbTQSCfNVh9EmTskCO0w+w10imHXql2fhF0cwoQf1cuJmfkKkNLF5VAk16IyDtyEHKXkvc1cWkt7lh3WHLwDVVtYGedOEuzgIwtnFjH6A8kge7XWD5GctUR6ArfxowNH0Jf3QpN2WHozEq3xfCC95H7zof42O4Wc6tvIG3aKUEcP9gYsd0BgYy/gqngBJmbLq+nF47Ll0XcvtX8uUwxYTMVTjGZ/uPdQtIanqjAjKf3ygzzawFpsO01AKIhAMnqpoTlHFm9E1NX70bq8u2Sf0bgEFACMC+4CDw17qnGPhmiIrCYNKjmftFbDJ2jMPVMzyE9EjkrD2H35GHygmIEL9mEmN//FakWNpprhq6iWbInwszHJEWazedUDzJQEPn7PCVnqKkFyTXtMhnOYDotnaqTa49hYlErfvX6aVwQY/6CGPe8VhQG7AzA2pAb9QgMZCSHlSgEHA6CTFmcDvaAAVo/7cf8X23BxIc2IjlrP6Yt3Y4Zq/Yi+annEZelZG9cDSJVVare5NX7B79W+TNDZp1QHRyPSKCxk7aoNVZop+eL5ynFwulMgf5HAFKiMa2b6dxMJAxZlI/gxfmYvDgP0bPWI+TOtZg0Ow8hT9RC++c3lE7Q1QxoNyHSeAxRFc2IrmpFbIXShI4guyEJh0z3sbXKd0UYW6Cv6MGU8i7EmHsQVfYO/vzOx7jkVkQX03cILF4fl5ukK+Dinxv0CAxkDsULcbo8XmeEboqStiFl7R43Pjnvxk/yX0b0o1uR9uN3MXXVASQs2Qr9My8Jmz8UmFSgDQbUUM8JMhYEc61fsUOeT396rwK0Byok0VHimHMLEb2w2DsTci2CZq9B5IJ8JaV7fpFkrLK4VmZ401abmYOwu9cifG4xtFnbYVj3rkgIsvXsHUG+K76iSy6yvrJdWgYw0ZD2mEpN6EYo58uXNNOZj0vr8zTagrYOhFafQHRBA8rev4gvGOB2XpCw0RXe8UKu0qznWCMA9pELgPvDamAgk7QfNzg4QAhkD3CpzyFSTDxgimqXUk5XuucYdE9YEPHkNkx56kVMW1on/WLVzNqhQORvm6puVcKWUQF1GzsGxT1YhdDFJSDQxAabxzgjQ0HrEM406FnrED4nH7rZRdDdnY/IOzliuQhhD1UiauV2JBQdQoLxGOJtzWJzxVe0SZvMFGMnkssUUNF7lOYnZc3SfI5g43IjQGYoPYS0itPSaiCk9AgSLIexrfks4FSaozjtSs2s6Ea7XZqkkBcDjTM3Wc4b8wgIZEpFC6WXG/39Sm64OAG01YRBdhBjkm1JCdf2aR9Wl72J1KU1uP1R6z8UogyWXsO1yehVquQs7TOCjDYat9HrnLp6LxIe2yBAo0qkqtQsKEAk1WJ6jjgD7LYdfI8CLs0jG6H7zSvQlx6FfmMnQmtboa1slawJtlEimUoagnlfSUUtSLJ0iLoymJQ2mvqKzoG4pO5GUBS2Ztxechix1hOYuqELr3V9Crgv4YrTLtJKkVVOyWimDUZ/ktfH2XfZ2/x1DICMilEkb3/vAHnHvhyS7yYVLw7JVRLCT9B2CcyCfOHwWdy37n3EP7lFsmsJCoJssFRTJZIvaTaVhcGsQM9ifzOll4bST6MehmV1MGQrFEfq0m3Q3mtU7LF0xjtzETxnjeIYPFKJqN/uR1TpQWhqWhBTQ0nUiuQyZSGAKJXIlrOCiGqJGQ3hVR2IY/M5kzKRje+JsbYqbTVNrUgdgSltvlQl9yVUn8K/lTTgu9vb0Pi5AqIrvOeZOi1deJS6STtzAXmh2PDV3auEkUTVjAGQBfoTX22/hN/XHMacp3ZA+3AdYh7fLwUqdAoSn9osrRBSs5WkSMV2UzJlWcHOupkwIwAACJBJREFUha0SuJCkZQYt04GSSJWs3IrE7C1IXbkV0ct3YPKj2xH1WJ00Pg5ZkAPNkgrE/Wo/4ta9DUPZMWHlY2u6EG1tQKzpqNJz1XwSCRamx3Qi0dSDJPNxea41tkJjbUJMdZvwYeTEuPgDxFD7E0wkZFukS6K0IqhoQpytURad7Rgi2AzFehx6axfiLA3QWRtlDjjBzl6xEQVv4PfvfIrTQnn1w+W5gF4QRDT0b6D76AcIAalLP8f2v5uNPJx2fHKuD/sPn8bvqt/Bfb/bLwPCEh7fjZjHq5XlyQ2IXboJuuXbEJ+5EwlZ9dBn74Y2a7MsMcu3IvrJLTJoLObxOsQv2YvEFQcwPbsOi39zAL+2HMTmV7pw+IwDG9ou4+7aBkyqOYmpW44jwtqJMFO3SCR9WSOSK3pknJ++/KDYVpRgjDdKxionfXAWt6kNSaWBg4zSj2k/lI56cwcMpk4km7qQXNqFpMJOMM9fZzkKTfn7oqKTbcehszQg3ngY003t2HfSjhM0siiVXA6p7hYzmGf+Bkoqfxf6KwWZ18MW99qOS2C6SZ8DOHGiD6+/9gGerTuF39Z0YGXR+3jg969i4U/3YvbTu6Xr48ynnkf6ypew+Cev4uH/eh2rcv6G35jeRf72Rmz8Sw/2HvwQZz5x4TINE3F6LwOXPxObpBvAz19oxS0lLUgwN2CKtQFJtm7obUoGaVzxQVF7KZYWJNpaoKtogsZ2DBrLMejMzaDhP6088EIPSkqqXDafI9BE5Za3IJaAqz2FRNNh6MqOILmiA2mbPkSo6RRC81vxwxdOousy03RIUlIF9slazifBpZjJ/q79Ddv/lYJMChdYPkA6hzabGHOKqFcK8egB9cPj7ofTaUefvR+9fU5c6uXixgVcxBVcgR3sK++AS0Jbji9PsueyAJgh4cukW3jyHR64LrA9JbC35xLu39yG0Pwj0JoaYbAckQvNzjZxluPQFTSC3iOHi+qsVGVNotrYvpyD34dSgdezTQUZkwoTbOyeyNlIbK15BFHmQ4itasO02uPQlHbh3/JasGj7cbzSfUG8eaG57PTsnWCJT5935pFIMDcNY6Wn2A1Dko8v+kpBJqYqaRDvnUf+ptcNXIQHF+mxupxgm3daFzypXMSJ8Kan0I5VmsIo6oGf50lnHJXMtsPeh4v90i5GGO/LbpLErCRlpoHCIp/tA8yHPsYdlW24raQDUTLVo1nqHg0bPkJ81UnEmzul7SXBxmxTEq+R1paAQRZTdkRUc2ptjxSPaIuOIcXUjhmW45hW3iW5YLcVNePO6hbUHv4Q5/qU9k29rH919ktoiOfkCs+VaofxfEqizrhNJrg/77DLxaZbrdyBHsChuNyiBpTzpfC7DCb0eeDpd8FDd4kxEoEf30SUek0T71bpNe/dxeQ8vlckYv8lgarLzWFUVyRiwb0nLwC5fzmFWVXtQlVElryJYGsTImxt0FpZBNuNJGMHDOUtYA+J5BFop0l1GFt2WPqNxVQeR1zNh9DaTkFT0o6o/EYwVafw8Kf4oJfJNx65URToKM2B5Ry4PUrc2MnOS31yEng+bxzVKqfe55+vWJLRTHXA4+mFXHSCRrUpeM4YnpKqddXIUNde9Ml7vTVcPLPqbq7JN/KG93aK7GU1vPfY/Ze8/U8p1dxAr8T3+HkHPj13FkXvn0F63UdIKvkrEkrekgZxhsoeZR63qUPmSqaUKw19VfL1etSk+t4pFQpxyyHylKChBe8gvvgNPLC7FX9svQx2zz/vlv5z4jFSAvN0KN0veQ4GXigEGP8/hf9W6mV9Xvobt/OrBRnvQoLBixNRhx4635x+oTRIUNUbE+wYWZAmQwTRIGzx5CsuO+05HoX3MXPX+XDA47wIeK5IbSFnZyt3utvL51FtKqC95PZIGIZHcPXbsfEE8LNXP8O3LEcQWvg+JpY3I4z2mLVDEhBVgHGtAud61mFlLYgoa4W2rBV3V7Tjp698jJdOu5SgNu1LmSmp3IiCLkZPJF1akeEkK/r5/9Cm9Z4PyRPj/++6cYy+P7h+tSDz9+u+6v1ulwDyg15gb/d5/Pbl41i8WRmOFVLeiUmlb2Jy2dsIKj+MUHMzIswdiDZ3QkdpZ6Zz0IhoYxM0pjZEGjsRUtyC0IIGAVVK5XF8v64Fv339DPac6MUZ3gPy/zoERlfw9QFJoJdhHGS+zqA4JUzGVCp5KO8uuIG2T934S/PneO59D371ei+W7v0MCzb34PaKVrDWMbmqEcm1jUjZ0IXpGzuRsbULj+zpwS//chzGQ6fx8snzaLngEpn7pT1Kva70CVClkq+fNpb2jYPMx9Wip0tgEQiSg+WhT8oYLb3Ufgipx2AztZMdsNu9m1jx7wDsl65IoQ2pLEopHocKXUkh5Bv6gP5eeJyXxSZ1S6qU136glrxJHuMg83UhiQrVmaCQcSmW35dWH/kpBxvRi1SSztD8jIOxQ3YrZAEtyQWlzyo/R6+3n06IS6FjaD2StOdCekbpbsk0Hant9vXrxsy+cZD5uFRO12W4uDjZ9YYcypecniCCGaagqU0+j8kACti4ltbkXpud76WnS9KZD0o1AdNgr0fxPWSnKvV8/LQxtWscZD4uFyWUIqUIHsokZpXaBwhdsc0pnr7UqQIgvmSZGWngPpFkzLFTg9YKx+W207AnZ9erNBd0KrqZkQ8S0Ayy3SyPcZD5upK8zpRGXCvixwsiD+xuJRJBiUWyhVVbSjtfVb8qyZo04mX58hDqoWQ8Gsto7R4HHK4+SY0mBUP7T2w+X79tDO0bB5nPi6XqO6KMoHF5Y6wKYqj9vNgbZLx5QUZVSG6OkooGveTYK8cZ+MpBL3msgePRUZD0nYF3jukn4yAb05dvbPz4cZCNjes0pn/lOMjG9OUbGz9+HGRj4zqN6V85DrIxffnGxo///88cV2N57zbIAAAAAElFTkSuQmCC;" vertex="1" parent="1">
          <mxGeometry x="1582" y="1043.63" width="83" height="81.37" as="geometry" />
        </mxCell>
        <mxCell id="VfZf6pHmzGxJr0AxBlC9-39" value="" style="ellipse;shape=cloud;whiteSpace=wrap;html=1;" vertex="1" parent="1">
          <mxGeometry x="1404" y="1056" width="183" height="63" as="geometry" />
        </mxCell>
        <mxCell id="VfZf6pHmzGxJr0AxBlC9-40" value="&lt;b&gt;liferay.cloud&lt;/b&gt;" style="text;html=1;strokeColor=none;fillColor=none;align=center;verticalAlign=middle;whiteSpace=wrap;rounded=0;" vertex="1" parent="1">
          <mxGeometry x="1426.5" y="1077.5" width="138" height="20" as="geometry" />
        </mxCell>
      </root>
    </mxGraphModel>
  </diagram>
</mxfile>
